<svg width="34" height="34" viewBox="0 0 34 34" fill="none" xmlns="http://www.w3.org/2000/svg">
<mask id="mask0_3102_1926" style="mask-type:alpha" maskUnits="userSpaceOnUse" x="0" y="0" width="34" height="34">
<rect width="34" height="34" fill="#07635D" fill-opacity="0.5"/>
</mask>
<g mask="url(#mask0_3102_1926)">
<path d="M24.0833 31.1654V26.9154H19.8333V24.082H24.0833V19.832H26.9167V24.082H31.1667V26.9154H26.9167V31.1654H24.0833ZM7.08333 28.332C6.30417 28.332 5.63715 28.0546 5.08229 27.4997C4.52743 26.9449 4.25 26.2779 4.25 25.4987V8.4987C4.25 7.71953 4.52743 7.05252 5.08229 6.49766C5.63715 5.9428 6.30417 5.66536 7.08333 5.66536H8.5V2.83203H11.3333V5.66536H19.8333V2.83203H22.6667V5.66536H24.0833C24.8625 5.66536 25.5295 5.9428 26.0844 6.49766C26.6392 7.05252 26.9167 7.71953 26.9167 8.4987V17.1404C26.4444 17.0695 25.9722 17.0341 25.5 17.0341C25.0278 17.0341 24.5556 17.0695 24.0833 17.1404V14.1654H7.08333V25.4987H17C17 25.9709 17.0354 26.4431 17.1062 26.9154C17.1771 27.3876 17.3069 27.8598 17.4958 28.332H7.08333ZM7.08333 11.332H24.0833V8.4987H7.08333V11.332Z" fill="#07635D" fill-opacity="0.5"/>
</g>
</svg>
