<svg width="26" height="37" viewBox="0 0 26 37" fill="none" xmlns="http://www.w3.org/2000/svg">
<mask id="mask0_702_5318" style="mask-type:alpha" maskUnits="userSpaceOnUse" x="0" y="0" width="26" height="37">
<rect x="2.5" y="2.5" width="21" height="31.8498" fill="#FF7A30" stroke="#FF7A30" stroke-width="5"/>
</mask>
<g mask="url(#mask0_702_5318)">
<mask id="path-2-inside-1_702_5318" fill="white">
<path d="M10.3459 27.6371L4.1709 18.8853L5.71465 16.6973L10.3459 23.2612L20.2855 9.17383L21.8292 11.3618L10.3459 27.6371Z"/>
</mask>
<path d="M10.3459 27.6371L4.1709 18.8853L5.71465 16.6973L10.3459 23.2612L20.2855 9.17383L21.8292 11.3618L10.3459 27.6371Z" fill="#FF7A30"/>
<path d="M10.3459 27.6371L6.26045 30.5197L10.3459 36.3099L14.4313 30.5197L10.3459 27.6371ZM4.1709 18.8853L0.0854532 16.0027L-1.94839 18.8853L0.0854533 21.7678L4.1709 18.8853ZM5.71465 16.6973L9.80009 13.8148L5.71465 8.02447L1.6292 13.8148L5.71465 16.6973ZM10.3459 23.2612L6.26045 26.1437L10.3459 31.934L14.4313 26.1437L10.3459 23.2612ZM20.2855 9.17383L24.3709 6.29127L20.2855 0.500975L16.2 6.29127L20.2855 9.17383ZM21.8292 11.3618L25.9147 14.2443L27.9485 11.3618L25.9147 8.47923L21.8292 11.3618ZM14.4313 24.7545L8.25634 16.0027L0.0854533 21.7678L6.26045 30.5197L14.4313 24.7545ZM8.25634 21.7678L9.80009 19.5799L1.6292 13.8148L0.0854532 16.0027L8.25634 21.7678ZM1.6292 19.5799L6.26045 26.1437L14.4313 20.3786L9.80009 13.8148L1.6292 19.5799ZM14.4313 26.1437L24.3709 12.0564L16.2 6.29127L6.26045 20.3786L14.4313 26.1437ZM16.2 12.0564L17.7438 14.2443L25.9147 8.47923L24.3709 6.29127L16.2 12.0564ZM17.7438 8.47923L6.26045 24.7545L14.4313 30.5197L25.9147 14.2443L17.7438 8.47923Z" fill="#FF7A30" mask="url(#path-2-inside-1_702_5318)"/>
</g>
</svg>
