<svg width="34" height="25" viewBox="0 0 34 25" fill="none" xmlns="http://www.w3.org/2000/svg">
<mask id="path-1-inside-1_3102_793" fill="white">
<path d="M12.0992 24.9992L0.699219 13.5992L3.54922 10.7492L12.0992 19.2992L30.4492 0.949219L33.2992 3.79922L12.0992 24.9992Z"/>
</mask>
<path d="M12.0992 24.9992L0.699219 13.5992L3.54922 10.7492L12.0992 19.2992L30.4492 0.949219L33.2992 3.79922L12.0992 24.9992Z" fill="#FF7A30"/>
<path d="M12.0992 24.9992L8.56368 28.5348L12.0992 32.0703L15.6348 28.5348L12.0992 24.9992ZM0.699219 13.5992L-2.83632 10.0637L-6.37185 13.5992L-2.83632 17.1348L0.699219 13.5992ZM3.54922 10.7492L7.08475 7.21368L3.54922 3.67815L0.0136844 7.21368L3.54922 10.7492ZM12.0992 19.2992L8.56368 22.8348L12.0992 26.3703L15.6348 22.8348L12.0992 19.2992ZM30.4492 0.949219L33.9848 -2.58632L30.4492 -6.12185L26.9137 -2.58632L30.4492 0.949219ZM33.2992 3.79922L36.8348 7.33475L40.3703 3.79922L36.8348 0.263685L33.2992 3.79922ZM15.6348 21.4637L4.23475 10.0637L-2.83632 17.1348L8.56368 28.5348L15.6348 21.4637ZM4.23475 17.1348L7.08475 14.2848L0.0136844 7.21368L-2.83632 10.0637L4.23475 17.1348ZM0.0136846 14.2848L8.56368 22.8348L15.6348 15.7637L7.08475 7.21368L0.0136846 14.2848ZM15.6348 22.8348L33.9848 4.48475L26.9137 -2.58632L8.56368 15.7637L15.6348 22.8348ZM26.9137 4.48475L29.7637 7.33475L36.8348 0.263685L33.9848 -2.58632L26.9137 4.48475ZM29.7637 0.263685L8.56368 21.4637L15.6348 28.5348L36.8348 7.33475L29.7637 0.263685Z" fill="#FF7A30" mask="url(#path-1-inside-1_3102_793)"/>
</svg>
