<svg width="38" height="38" viewBox="0 0 38 38" fill="none" xmlns="http://www.w3.org/2000/svg">
<mask id="mask0_3102_1090" style="mask-type:alpha" maskUnits="userSpaceOnUse" x="0" y="0" width="38" height="38">
<rect width="37.1367" height="37.1367" fill="#07635D"/>
</mask>
<g mask="url(#mask0_3102_1090)">
<path d="M18.5684 18.5684C16.8663 18.5684 15.4092 17.9623 14.1971 16.7502C12.985 15.5381 12.3789 14.081 12.3789 12.3789C12.3789 10.6768 12.985 9.21971 14.1971 8.00761C15.4092 6.7955 16.8663 6.18945 18.5684 6.18945C20.2705 6.18945 21.7276 6.7955 22.9397 8.00761C24.1518 9.21971 24.7578 10.6768 24.7578 12.3789C24.7578 14.081 24.1518 15.5381 22.9397 16.7502C21.7276 17.9623 20.2705 18.5684 18.5684 18.5684ZM6.18945 30.9473V26.6146C6.18945 25.7378 6.41511 24.9319 6.86642 24.1969C7.31774 23.4619 7.91734 22.901 8.66523 22.5141C10.2642 21.7147 11.8889 21.1151 13.5394 20.7153C15.1899 20.3156 16.8663 20.1157 18.5684 20.1157C20.2705 20.1157 21.9468 20.3156 23.5973 20.7153C25.2478 21.1151 26.8725 21.7147 28.4715 22.5141C29.2194 22.901 29.819 23.4619 30.2703 24.1969C30.7216 24.9319 30.9473 25.7378 30.9473 26.6146V30.9473H6.18945ZM9.28418 27.8525H27.8525V26.6146C27.8525 26.331 27.7816 26.0731 27.6398 25.841C27.4979 25.6089 27.311 25.4283 27.0789 25.2994C25.6862 24.6031 24.2807 24.0808 22.8623 23.7327C21.4439 23.3845 20.0126 23.2104 18.5684 23.2104C17.1242 23.2104 15.6928 23.3845 14.2744 23.7327C12.856 24.0808 11.4505 24.6031 10.0579 25.2994C9.82576 25.4283 9.63878 25.6089 9.49694 25.841C9.3551 26.0731 9.28418 26.331 9.28418 26.6146V27.8525ZM18.5684 15.4736C19.4194 15.4736 20.148 15.1706 20.754 14.5646C21.3601 13.9585 21.6631 13.23 21.6631 12.3789C21.6631 11.5279 21.3601 10.7993 20.754 10.1933C20.148 9.58721 19.4194 9.28418 18.5684 9.28418C17.7173 9.28418 16.9888 9.58721 16.3827 10.1933C15.7767 10.7993 15.4736 11.5279 15.4736 12.3789C15.4736 13.23 15.7767 13.9585 16.3827 14.5646C16.9888 15.1706 17.7173 15.4736 18.5684 15.4736Z" fill="#07635D"/>
</g>
</svg>
